<svg width="35" height="50" viewBox="0 0 35 50" fill="none" xmlns="http://www.w3.org/2000/svg">
<path d="M0 9.35473C0 4.18825 4.18826 0 9.35479 0H25.4063C30.5729 0 34.7611 4.18825 34.7611 9.35473C34.7611 12.6262 33.0818 15.5055 30.5382 17.1774C33.0818 18.8495 34.7611 21.7287 34.7611 25.0002C34.7611 30.1667 30.5729 34.355 25.4063 34.355H25.2032C22.7812 34.355 20.574 33.4345 18.9127 31.9242V40.5437C18.9127 45.779 14.6149 50 9.40518 50C4.25157 50 0 45.8245 0 40.6452C0 37.3739 1.67915 34.4948 4.22258 32.8228C1.67915 31.1507 0 28.2715 0 25.0002C0 21.7287 1.6793 18.8495 4.2229 17.1774C1.6793 15.5055 0 12.6262 0 9.35473ZM15.8484 18.7097H9.35479C5.88059 18.7097 3.06424 21.5261 3.06424 25.0002C3.06424 28.4609 5.85887 31.2689 9.31455 31.2906C9.32793 31.2905 9.34131 31.2905 9.35479 31.2905H15.8484V18.7097ZM18.9127 25.0002C18.9127 28.4743 21.729 31.2907 25.2032 31.2907H25.4063C28.8806 31.2907 31.6969 28.4743 31.6969 25.0002C31.6969 21.5261 28.8806 18.7097 25.4063 18.7097H25.2032C21.729 18.7097 18.9127 21.5261 18.9127 25.0002ZM9.35479 34.355C9.34131 34.355 9.32793 34.3549 9.31455 34.3549C5.85887 34.3765 3.06424 37.1845 3.06424 40.6452C3.06424 44.1066 5.91821 46.9357 9.40518 46.9357C12.9483 46.9357 15.8484 44.0611 15.8484 40.5437V34.355H9.35479ZM9.35479 3.06424C5.88059 3.06424 3.06424 5.8806 3.06424 9.35473C3.06424 12.8289 5.88059 15.6452 9.35479 15.6452H15.8484V3.06424H9.35479ZM18.9127 15.6452H25.4063C28.8806 15.6452 31.6969 12.8289 31.6969 9.35473C31.6969 5.8806 28.8806 3.06424 25.4063 3.06424H18.9127V15.6452Z" fill="current" stroke="none"/>
</svg>
