<svg width="50" height="50" viewBox="0 0 50 50" fill="none" xmlns="http://www.w3.org/2000/svg">
<path fill-rule="evenodd" clip-rule="evenodd" d="M19.8062 33.4604L19.8021 33.4521C19.8771 33.4125 19.9542 33.3708 20.0312 33.3271C20.3937 34.6708 20.3542 35.9271 19.9792 37.0625C19.9375 37.1875 19.8917 37.3125 19.8417 37.4375C19.7917 37.5604 19.7375 37.6833 19.6812 37.8021C19.3917 38.4021 19.0021 38.9667 18.525 39.4854C17.0729 41.0687 15.0437 41.6688 14.1729 41.1646C13.2333 40.6188 13.7042 38.3854 15.3875 36.6042C17.2 34.6917 19.8062 33.4604 19.8062 33.4604Z" fill="current" stroke="none"/>
<path fill-rule="evenodd" clip-rule="evenodd" d="M25 0C11.1938 0 0 11.1938 0 25C0 38.8062 11.1938 50 25 50C38.8062 50 50 38.8062 50 25C50 11.1938 38.8062 0 25 0ZM33.1521 22.1667C28.8187 23.8437 25.2333 23.5771 23.7625 23.0958C22.0896 22.5458 21.1062 21.4417 20.8687 20.8187C20.775 20.575 20.6125 20.1646 20.8687 20.0229C21.025 19.9354 21.0875 19.9563 21.5104 20.4208C21.9104 20.8604 23.5167 22.0458 26.5708 21.7021C34.5812 20.8042 39.4062 14.5792 37.8833 11.2312C36.8167 8.8875 30.6396 7.82917 22.9271 11.6729C13.5104 16.3646 13 20.2333 12.9187 21.7021C12.6979 25.7437 17.9062 27.8708 20.7229 30.875C20.7896 30.9458 20.8542 31.0167 20.9167 31.0896C21.7687 30.7729 22.95 30.5937 24.8271 30.5604C29.3833 30.4812 31.9583 33.4854 31.8521 36.1708C31.7687 38.2854 29.8271 39.1583 29.4667 39.2188C29.2042 39.2646 29.0604 39.2708 29.025 39.0646C29 38.9229 29.0937 38.8583 29.4 38.6667C29.7083 38.4771 30.6271 37.8458 30.7917 36.7C30.9562 35.5542 30.0958 32.8167 25.7104 32.3042C24.1562 32.1229 22.9333 32.2458 21.8833 32.5229C22.6437 34.1979 22.7896 37.5708 21.0396 40.1792C19.2271 42.8833 15.8521 44.5292 12.5646 43.6146C11.5021 43.3187 9.9 41.1271 11.2833 38.0687C12.5937 35.1708 18.1938 32.3375 18.9583 31.9604V31.9479C16.3646 29.7146 10.0521 26.7021 9.16042 22.0958C8.90625 20.7958 9.51875 17.6708 13.3562 14.0812C16.5833 11.0625 21.0729 8.75 25.2187 7.27708C32.1875 4.80208 39.5479 6.2625 40.6812 10.7C41.7958 15.0667 38.0042 20.2896 33.1521 22.1667Z" fill="current" stroke="none"/>
</svg>
